<svg xmlns="http://www.w3.org/2000/svg" viewBox="0 0 100 100">
  <defs>
    <linearGradient id="grad" x1="0%" y1="0%" x2="100%" y2="100%">
      <stop offset="0%" style="stop-color:#4db6ac;stop-opacity:1" />
      <stop offset="100%" style="stop-color:#00796b;stop-opacity:1" />
    </linearGradient>
  </defs>
  <rect width="100" height="100" rx="20" fill="url(#grad)"/>
  <!-- Lotus flower design -->
  <path d="M50 75 C50 75 35 65 35 50 C35 35 50 25 50 25 C50 25 65 35 65 50 C65 65 50 75 50 75" fill="white" opacity="0.9"/>
  <path d="M50 70 C50 70 40 60 40 50 C40 40 50 35 50 35 C50 35 60 40 60 50 C60 60 50 70 50 70" fill="white" opacity="0.7"/>
  <circle cx="50" cy="50" r="8" fill="white"/>
  <!-- Zen dot below -->
  <circle cx="50" cy="82" r="4" fill="white" opacity="0.6"/>
</svg>
